<svg xmlns="http://www.w3.org/2000/svg" viewBox="0 0 925.97 241.03">
    <defs>
        <style>
            .cls-1,.cls-3,.cls-5{fill:#fff;}.cls-1{stroke:#221f1f;stroke-linecap:round;stroke-linejoin:round;stroke-width:2px;}.cls-1,.cls-2,.cls-3,.cls-4{fill-rule:evenodd;}.cls-4{fill:#0099d8;}.cls-5{font-size:102.08px;font-family:HelveticaNeue-Bold,
            Helvetica Neue;font-weight:700;}
        </style>
    </defs>
    <title>bmw</title>
    <g id="Layer_2" data-name="Layer 2">
        <path class="cls-1" d="M243.45,123.93A119.52,119.52,0,1,0,123.93,243.44,119.52,119.52,0,0,0,243.45,123.93Z"
              transform="translate(-3.41 -3.41)"/>
        <path class="cls-2" d="M240.56,123.93A116.64,116.64,0,1,0,123.93,240.56,116.64,116.64,0,0,0,240.56,123.93Z"
              transform="translate(-3.41 -3.41)"/>
        <path class="cls-3"
              d="M73.45,58.37a8.8,8.8,0,0,0-14-6.06c-.21.15-.4.32-.59.48a8.31,8.31,0,0,0,.19-4.37,7.91,7.91,0,0,0-13.85-3.08c-.5.63-1,1.26-1.51,1.9l-7.93,9.9L29,65.64l-.44.56a3,3,0,0,0,.31.26l2.64,2.11,10,8,9.89,7.92,2.52,2s.23.23.26.19l.5-.63,6.79-8.47,8.13-10.16c1.4-1.75,3-3.4,3.62-5.59a9,9,0,0,0,.28-3.47ZM44.26,67.92l-4.11-3.3c-.53-.41-1-.83-1.57-1.25,0,0,.53-.69.57-.74l7.67-9.57a6.17,6.17,0,0,1,2.31-2.17,3.69,3.69,0,0,1,4.1.92,3.74,3.74,0,0,1,.83,3.35,7.87,7.87,0,0,1-1.73,2.67l-4,5-4,5.05ZM64.52,64l-2.6,3.25-7.14,8.93s-.08.11-.1.09L54.32,76l-2-1.56L49,71.72l6.48-8.1,3.16-3.95a3.91,3.91,0,0,1,3-1.65,3.64,3.64,0,0,1,2.92,6Z"
              transform="translate(-3.41 -3.41)"/>
        <path class="cls-3" d="M196.83,123.93a72.9,72.9,0,1,0-72.9,72.89,72.9,72.9,0,0,0,72.9-72.89Z"
              transform="translate(-3.41 -3.41)"/>
        <path class="cls-4" d="M123.93,54.72a71.11,71.11,0,0,0-69.2,69.2h69.2V54.72Z"
              transform="translate(-3.41 -3.41)"/>
        <path class="cls-4" d="M123.93,193.13a71.11,71.11,0,0,0,69.2-69.21h-69.2v69.21Z"
              transform="translate(-3.41 -3.41)"/>
        <polygon class="cls-3"
                 points="198.28 40.74 192.21 35.1 172.49 61.01 178.56 66.65 200.19 56.73 185.77 75.66 189.95 82.83 219.54 69.25 215.37 62.08 198.29 69.92 210.43 53.97 205.12 47.34 186.9 55.69 198.28 40.74 198.28 40.74"/>
        <polygon class="cls-3"
                 points="109.79 20.89 117.48 42.76 123.56 42.76 131.25 20.89 132.06 42.76 140.57 43.97 139.35 11.17 128.42 9.95 120.52 33.04 112.62 9.95 101.69 11.17 100.47 43.97 108.98 42.76 109.79 20.89 109.79 20.89"/>
        <text class="cls-5" transform="translate(262.45 151.88)">BMW GROUP</text>
    </g>
</svg>
