<svg id="9e1a6595-5edd-4e5b-8c1c-22f18be03a21" data-name="Layer 1" xmlns="http://www.w3.org/2000/svg"
     viewBox="0 0 283.47 102.2">
    <title>kion_logo_white</title>
    <polygon points="242.66 13.3 242.66 13.3 283.47 13.3 283.47 0 242.66 0 242.66 13.3"
             style="fill:#fff;fill-rule:evenodd"/>
    <polygon points="67.28 73.3 67.28 73.3 82.2 73.3 82.2 25.9 67.28 25.9 67.28 73.3"
             style="fill:#fff;fill-rule:evenodd"/>
    <path
        d="M99,56h0c0,13.9,7.79,18.24,20.87,18.24h23.7c13.08,0,20.86-4.34,20.86-18.24V43.1c0-13.92-7.78-18.24-20.86-18.24h-23.7C106.75,24.86,99,29.18,99,43.1Zm14.92-10.27h0c0-5.9,1.43-8.87,9.08-8.87h17.43c7.65,0,9.09,3,9.09,8.87v7.66c0,6.88-1.44,8.86-8.31,8.86h-19c-6.87,0-8.3-2-8.3-8.86Z"
        style="fill:#fff;fill-rule:evenodd"/>
    <polygon
        points="228.07 58.4 228.07 58.4 228.07 25.9 242.66 25.9 242.66 73.3 221.62 73.3 195.75 40.8 195.75 73.3 181.16 73.3 181.16 25.9 202.18 25.9 228.07 58.4"
        style="fill:#fff;fill-rule:evenodd"/>
    <path
        d="M186.82,96.83h0c0,3.41,1.76,5.25,5.61,5.25h6.12c3.86,0,5.61-1.84,5.61-5.25V88.21H200v8.13c0,1.74-.62,2.33-2.34,2.33h-4.16c-1.71,0-2.34-.59-2.34-2.33V88.21h-4.36Z"
        style="fill:#ae0055;fill-rule:evenodd"/>
    <path
        d="M226.7,101.85h4.2V98.42h8.36c3,0,3.86-2.54,3.86-4.58v-.75c0-2.67-1-4.88-5-4.88H226.7Zm4.2-10.46h6.18c1.27,0,1.73.41,1.73,1.35v1.15a1.2,1.2,0,0,1-1.37,1.35H230.9Z"
        style="fill:#ae0055;fill-rule:evenodd"/>
    <path
        d="M145.78,96.92h0c0,4,2.26,5.28,6,5.28h6.82c3.76,0,6-1.25,6-5.28V93.15c0-4-2.24-5.29-6-5.29H151.8c-3.76,0-6,1.26-6,5.29Zm4.31-3h0c0-1.71.4-2.58,2.61-2.58h5c2.2,0,2.62.87,2.62,2.58v2.25c0,2-.42,2.56-2.39,2.56h-5.46c-2,0-2.39-.57-2.39-2.56Z"
        style="fill:#ae0055;fill-rule:evenodd"/>
    <path
        d="M111.27,91.39h0v3.2h7.18c1.14,0,1.56-.34,1.56-1.31v-.57c0-1.2-.61-1.32-1.94-1.32Zm8.1,10.46h0l-2.72-4.07h-5.38v4.07H107V88.21H120c3.25,0,4.11,2,4.11,4.6,0,2-.6,3.94-2.74,4.5l3.5,4.54Z"
        style="fill:#ae0055;fill-rule:evenodd"/>
    <path
        d="M67,96.92h0c0,4,2.26,5.16,6.05,5.16h4.85c4.74,0,6.79-.49,6.79-4.33V93.67h-9V96.5h4.82v1c0,1.32-1.1,1.39-2.2,1.39H74c-2.12,0-2.67-.4-2.67-2.76V93.92c0-2.35.55-2.75,2.67-2.75h9.89V88H73.1C69.31,88,67,89.14,67,93.14Z"
        style="fill:#ae0055;fill-rule:evenodd"/>
    <polygon
        points="14.75 43.31 14.75 43.31 17.61 43.31 36.41 25.9 56.62 25.9 31.38 47.73 60.46 73.3 37.58 73.3 17.75 55.1 14.75 55.1 14.75 73.3 0 73.3 0 25.9 14.75 25.9 14.75 43.31"
        style="fill:#fff;fill-rule:evenodd"/>
</svg>
