<?xml version="1.0" encoding="utf-8"?>
<!-- Generator: Adobe Illustrator 22.1.0, SVG Export Plug-In . SVG Version: 6.00 Build 0)  -->
<svg version="1.1" id="Layer_1" xmlns="http://www.w3.org/2000/svg" xmlns:xlink="http://www.w3.org/1999/xlink" x="0px" y="0px"
	 viewBox="0 0 198.6 56.7" style="enable-background:new 0 0 198.6 56.7;" xml:space="preserve">
<style type="text/css">
	.st0{fill-rule:evenodd;clip-rule:evenodd;fill:#FFFFFF;}
</style>
<g>
	<path class="st0" d="M170.9,49.9c-5.3,4.4-10.9,6.5-14.1,6.5c-3.9,0-5.1-2.9-4.8-5.5c-1.9,1.8-7.5,5.6-12,5.6
		c-3.9,0-6.7-2.6-7.1-6.3c-5.2,4.3-10.9,6.3-14.7,6.3c-4.5,0-6.9-3.4-4.7-7.6c1.3-2.4,2.5-4.8,3.8-7.2c0.8-1.6,0.5-3.2-1.2-3.2
		c-5.9,0-11.9,10.7-14.3,15.4c-0.3,0.7-0.7,1.3-1,2c-3.8,0-7.7,0-11.5,0c1.2-2.3,2.3-4.6,3.5-6.9c-5.5,5.2-12,7.6-16.2,7.6
		c-4.4,0-6.9-3.3-5.1-7.3c-4,3.5-10,7.2-17.3,7.2c-5.6,0-11.1-1.9-16.5-4.3c-6.6,2.8-13,4.2-18.6,4.1c-10,0-18.7-3-18.9-7.6
		c-0.3-5.2,7.4-8.2,19.4-8.2c6.2,0,12.2,1.4,17.9,3.2c6.6-6,13.3-14,20.3-21.2C70.4,9,89.2,0,110.6,0c24.9,0,41,7.2,41.2,16.4
		c0.1,5.3-5.2,9.9-14.5,10.3c-0.1-0.6-0.2-1.1-0.3-1.7c2-0.9,4.4-2.5,4.3-7.6c-0.1-6.6-8.1-14.6-29.1-14.6
		C96,2.8,86.1,9.3,71.1,26.6C63.6,35.3,55.5,42,47.6,46.9c5.1,1.6,10,2.8,14.8,2.8c7,0,11.3-4.8,13-8c1.5-2.9,3.1-5.8,4.6-8.6
		c3.9,0,7.8,0,11.6,0c-2.8,5.2-5.6,10.3-8.3,15.5c-0.8,1.4-0.5,2.5,1.1,2.5c2.7,0,9.2-4.2,12.9-11.4c1.1-2.2,2.3-4.4,3.4-6.6
		c3.9,0,7.8,0,11.6,0c-1,2-2,3.9-3,5.9c5.4-3.9,9.8-6.5,14.6-6.5c5.6,0,7.4,4.4,5.3,8.4c-1.4,2.6-2.7,5.2-4.1,7.8
		c-0.8,1.4-0.6,2.5,1,2.5c1.4,0,4-1.2,6.7-3.5c0.1-0.9,0.3-1.8,0.7-2.7c2-5.3,7.6-13.2,17.1-13.2c5,0,7.2,2.3,7.8,4.3
		c2.5-4.8,5-9.5,7.4-14.3c3.8,0,7.5,0,11.3,0c-4.5,8.9-9.2,17.8-14.1,26.7c-0.8,1.4-0.6,2.5,1,2.5c1.5,0,4.1-1.3,6.9-3.6
		c0.1-0.5,0.2-0.9,0.3-1.4c2.5-8.8,11.3-14.2,20-14.2c4.4,0,8.6,2.2,7.2,6.7c-1.7,5.5-12.8,7.3-16.3,7.8c-0.8,3.4,1.2,6.1,5.1,6
		c3.8,0,7.3-1.5,11.1-3.3c0,0.7,0,1.4-0.1,2.1c-4.7,2.9-11.8,5.3-17.3,5.4C174.2,56.7,171.4,53.4,170.9,49.9 M154.2,35.3
		c-4.2,0-8.8,8-9.6,11.3c-0.5,2.1-0.5,4.4,1.9,4.4c5.3,0,9.8-9.5,10-12.5C156.5,36.9,155.9,35.3,154.2,35.3z M30.6,48.9
		c-5.9-2.8-11.4-5.2-16.1-5.3c-3.6,0-5.5,1.9-5.4,4c0.1,3,3.7,5.3,9.7,5.3C22.8,53,26.7,51.4,30.6,48.9z M191.7,34.3
		c-4.3,0-7.9,6.8-9.1,10c4.7-0.8,9-3.4,10.6-7c0.3-0.7,0.4-1.5,0.1-2.1C193.1,34.7,192.5,34.3,191.7,34.3z M84.8,24.2
		c0.5-2.9,3.5-5.3,6.7-5.3c3.2,0,5.5,2.4,5.1,5.3c-0.5,2.9-3.5,5.3-6.7,5.3C86.6,29.6,84.3,27.2,84.8,24.2z"/>
</g>
</svg>
