<svg id="Layer_1" data-name="Layer 1" xmlns="http://www.w3.org/2000/svg" viewBox="0 0 175.75 49.24">
    <defs>
        <style>.cls-1{fill:#231f20;}.cls-1,.cls-2{fill-rule:evenodd;}.cls-2{fill:#f68b1f;}</style>
    </defs>
    <title>still</title>
    <polygon class="cls-1"
             points="43.08 26.34 83.48 26.34 83.48 31.47 68.79 31.47 68.79 49.24 57.76 49.24 57.76 31.47 43.08 31.47 43.08 26.34 43.08 26.34"/>
    <path class="cls-1" d="M109.46,26.34h11V43.43c0,.45.22.67.62.67h19.87v5.14H111.56a1.9,1.9,0,0,1-2.1-2.14V26.34Z"/>
    <polygon class="cls-1" points="88.34 26.34 99.32 26.34 99.32 49.24 88.34 49.24 88.34 26.34 88.34 26.34"/>
    <path class="cls-1"
          d="M0,28.48a1.9,1.9,0,0,1,2.1-2.14H37.77v5.13H11.65a.56.56,0,0,0-.62.63v2.63c0,.45.22.63.62.63h24.6a1.9,1.9,0,0,1,2.1,2.14v9.6a1.9,1.9,0,0,1-2.1,2.14H0V44.1H26.74a.56.56,0,0,0,.62-.62V40.85a.56.56,0,0,0-.62-.63H2.14A1.9,1.9,0,0,1,0,38.08v-9.6Z"/>
    <path class="cls-1"
          d="M144.23,26.34h11V43.48a.56.56,0,0,0,.62.62h19.87v5.14H146.37a1.93,1.93,0,0,1-2.14-2.14V26.34Z"/>
    <polygon class="cls-2" points="61.38 0 126.42 0 114.1 17.54 49.06 17.54 61.38 0 61.38 0"/>
</svg>
