<?xml version="1.0" encoding="utf-8"?>
<!-- Generator: Adobe Illustrator 22.1.0, SVG Export Plug-In . SVG Version: 6.00 Build 0)  -->
<svg version="1.1" id="Layer_1" xmlns="http://www.w3.org/2000/svg" xmlns:xlink="http://www.w3.org/1999/xlink" x="0px" y="0px"
	 viewBox="0 0 175.8 49.2" style="enable-background:new 0 0 175.8 49.2;" xml:space="preserve">
<style type="text/css">
	.st0{fill:#FFFFFF;}
	.st1{fill:#F68B1F;}
</style>
<title>still</title>
<polygon class="st0" points="43.1,26.3 83.5,26.3 83.5,31.5 68.8,31.5 68.8,49.2 57.8,49.2 57.8,31.5 43.1,31.5 43.1,26.3 "/>
<path class="st0" d="M109.5,26.3h11v17.1c0,0.5,0.2,0.7,0.6,0.7h19.9v5.1h-29.4c-1,0.1-2-0.6-2.1-1.7c0-0.2,0-0.3,0-0.5V26.3z"/>
<polygon class="st0" points="88.3,26.3 99.3,26.3 99.3,49.2 88.3,49.2 88.3,26.3 "/>
<path class="st0" d="M0,28.5c-0.1-1,0.6-2,1.6-2.1c0.2,0,0.3,0,0.5,0h35.7v5.1H11.6c-0.3,0-0.6,0.2-0.6,0.5c0,0,0,0.1,0,0.1v2.6
	c0,0.5,0.2,0.6,0.6,0.6h24.6c1-0.1,2,0.6,2.1,1.7c0,0.2,0,0.3,0,0.5v9.6c0.1,1-0.6,2-1.6,2.1c-0.2,0-0.3,0-0.5,0H0v-5.1h26.7
	c0.3,0,0.6-0.2,0.6-0.5c0,0,0-0.1,0-0.1v-2.6c0-0.3-0.2-0.6-0.5-0.6c0,0-0.1,0-0.1,0H2.1c-1,0.1-2-0.6-2.1-1.6c0-0.2,0-0.3,0-0.5
	C0,38.1,0,28.5,0,28.5z"/>
<path class="st0" d="M144.2,26.3h11v17.1c0,0.3,0.2,0.6,0.5,0.6c0,0,0.1,0,0.1,0h19.9v5.1h-29.3c-1.1,0.1-2-0.6-2.1-1.7
	c0-0.1,0-0.3,0-0.4V26.3z"/>
<polygon class="st1" points="61.4,0 126.4,0 114.1,17.5 49.1,17.5 61.4,0 "/>
</svg>
