<?xml version="1.0" encoding="utf-8"?>
<!-- Generator: Adobe Illustrator 20.1.0, SVG Export Plug-In . SVG Version: 6.00 Build 0)  -->
<!DOCTYPE svg PUBLIC "-//W3C//DTD SVG 1.1//EN" "http://www.w3.org/Graphics/SVG/1.1/DTD/svg11.dtd">
<svg version="1.1" id="Layer_1" xmlns="http://www.w3.org/2000/svg" xmlns:xlink="http://www.w3.org/1999/xlink" x="0px" y="0px"
	 viewBox="0 0 592.4 139.6" style="enable-background:new 0 0 592.4 139.6;" xml:space="preserve">
<style type="text/css">
	.st0{fill:#FFFFFF;}
	.st1{fill:#FDBB30;}
</style>
<g>
	<g>
		<path class="st0" d="M342.9,74c0-13.8-5.9-25.9-25.8-25.9c-10.2,0-18.3,2.9-22.8,5.4l3.2,11.1c4-2.6,10.5-4.7,16.6-4.7
			c10.1,0,11.8,5.7,11.8,9.4v0.9c-22,0-35.9,7.6-35.9,23.1c0,9.5,7.1,18.4,19.4,18.4c7.6,0,13.9-3,17.7-7.9h0.4
			c0,0,2.5,10.5,16.4,6.5c-0.7-4.4-1-9-1-14.7L342.9,74L342.9,74z M326.5,88.5c0,1.1-0.1,2.3-0.4,3.3c-1.3,4.2-5.6,7.8-11.1,7.8
			c-4.6,0-8.2-2.6-8.2-8c0-8.4,9.2-10.7,19.7-10.6V88.5z"/>
		<path class="st0" d="M0,29.3c0,0,14.4,58.9,16.7,68.5c2.7,11.2,7.5,15.3,21.4,12.5l9-36.5c2.3-9.1,3.8-15.5,5.3-24.8h0.3
			c1,9.3,2.5,15.7,4.4,24.8c0,0,3.7,16.6,5.5,25.3c1.9,8.7,7.1,14.2,20.7,11.2l21.4-81H87.4l-7.3,35c-2,10.2-3.7,18.2-5.1,27.5h-0.2
			C73.6,82.6,72,74.9,70,65l-7.6-35.7h-18l-8.1,34.8c-2.3,10.6-4.5,19.1-5.8,28.1h-0.2C28.9,83.7,27,73,25,62.8
			c0,0-4.8-24.9-6.5-33.5H0z"/>
		<path class="st0" d="M153.7,74c0-13.8-5.9-25.9-25.8-25.9c-10.2,0-18.3,2.9-22.8,5.4l3.2,11.1c4-2.6,10.5-4.7,16.6-4.7
			c10.1,0,11.8,5.7,11.8,9.4v0.9c-22,0-35.9,7.6-35.9,23.1c0,9.5,7.1,18.4,19.4,18.4c7.6,0,13.9-3,17.7-7.9h0.4
			c0,0,2.5,10.5,16.4,6.5c-0.7-4.4-1-9-1-14.7V74z M137.3,88.5c0,1.1-0.1,2.3-0.4,3.3c-1.3,4.2-5.6,7.8-11.1,7.8
			c-4.6,0-8.2-2.6-8.2-8c0-8.4,9.2-10.7,19.7-10.6V88.5z"/>
		<polygon class="st0" points="181.2,93.1 181.2,29.3 164.7,29.3 164.7,110.3 181.2,110.3 		"/>
		<path class="st0" d="M396.4,29.3c0,7.8,0,59.8,0,59.8c0,8.2,1.6,14,4.9,17.5c2.9,3.1,7.7,5.1,13.4,5.1c4.9,0,9.6-0.9,11.9-1.8
			L426.4,97c-1.7,0.4-3.6,0.7-6.2,0.7c-5.6,0-7.5-3.6-7.5-11V63.8H427V48.3h-14.3V29.1h-16.3V29.3z"/>
		<path class="st0" d="M353.9,49.4v60.9h17V79.1c0-1.7,0.1-3.1,0.4-4.5c1.3-6.5,6.2-10.7,13.4-10.7c2,0,3.4,0.2,4.9,0.4V48.4
			c-1.3-0.3-2.2-0.4-3.7-0.4c-6.3,0-13.5,4.1-16.6,12.9h-0.5V49.4L353.9,49.4L353.9,49.4z"/>
		<path class="st0" d="M192.7,49.4v60.9h16.5V74.6c0-1.7,0.2-3.4,0.8-5c1.4-3.6,4.7-7.8,10-7.8c6.7,0,9.8,5.6,9.8,13.8v34.7h16.5
			V74.2c0-1.6,0.2-3.5,0.7-4.9c1.4-4.1,5-7.4,9.9-7.4c6.8,0,10,5.5,10,15.1c0,0,0,25.7,0,33.3h16.5V74.5c0-18.9-9.6-26.4-20.4-26.4
			c-4.8,0-8.6,1.2-12,3.3c-2.9,1.8-5.5,4.3-7.7,7.6h-0.2c-2.6-6.6-8.8-10.9-16.8-10.9c-10.3,0-14.9,5.2-17.7,9.6h-0.2v-8.3
			L192.7,49.4L192.7,49.4z"/>
	</g>
	<g>
		<g>
			<path class="st1" d="M515.8,47c3.3,0,6-1.7,6.3-3.9l3.2-36.5c0-3.6-4.2-6.6-9.5-6.6c-5.3,0-9.5,3-9.5,6.6l3.2,36.5
				C509.9,45.3,512.6,47,515.8,47L515.8,47z"/>
			<path class="st1" d="M496.1,58.4c1.6-2.8,1.5-6-0.2-7.4l-30-21.1c-3.1-1.8-7.8,0.4-10.5,5s-2.2,9.7,0.9,11.5l33.2,15.5
				C491.6,62.7,494.5,61.2,496.1,58.4L496.1,58.4z"/>
			<path class="st1" d="M535.6,58.4c1.6,2.8,4.5,4.3,6.5,3.5l33.2-15.5c3.1-1.8,3.6-6.9,0.9-11.5c-2.7-4.6-7.4-6.8-10.5-5l-30,21.1
				C534.1,52.4,534,55.6,535.6,58.4L535.6,58.4z"/>
		</g>
		<g>
			<path class="st1" d="M515.8,92.6c3.3,0,6,1.7,6.3,3.9l3.2,36.5c0,3.6-4.2,6.6-9.5,6.6c-5.3,0-9.5-3-9.5-6.6l3.2-36.5
				C509.9,94.3,512.6,92.6,515.8,92.6L515.8,92.6z"/>
			<path class="st1" d="M535.6,81.2c1.6-2.8,4.5-4.3,6.5-3.5l33.2,15.5c3.1,1.8,3.6,7,0.9,11.6c-2.7,4.6-7.4,6.8-10.5,5l-30-21
				C534.1,87.2,534,84,535.6,81.2L535.6,81.2z"/>
			<path class="st1" d="M496.1,81.2c1.6,2.8,1.5,6-0.2,7.4l-30,21c-3.1,1.8-7.8-0.4-10.5-5s-2.2-9.7,0.9-11.6l33.2-15.5
				C491.6,76.9,494.5,78.4,496.1,81.2L496.1,81.2z"/>
		</g>
		<g>
			<path class="st1" d="M587.1,102.2c2.9,0,5.3,2.3,5.3,5.2c0,3-2.3,5.3-5.3,5.3s-5.3-2.3-5.3-5.3
				C581.7,104.5,584.1,102.2,587.1,102.2L587.1,102.2z M587,103.1c-2.4,0-4.2,1.9-4.2,4.3s1.8,4.3,4.2,4.3s4.1-1.9,4.1-4.3
				C591.2,105,589.4,103.1,587,103.1L587,103.1z M586.1,110.3h-1v-5.5c0.6-0.1,1.1-0.2,1.9-0.2c0.9,0,1.4,0.2,1.7,0.4
				c0.3,0.2,0.6,0.7,0.6,1.1c0,0.7-0.5,1.1-1.1,1.3v0.1c0.5,0.2,0.8,0.6,0.9,1.3c0.2,0.8,0.3,1.2,0.4,1.4h-1
				c-0.2-0.2-0.3-0.7-0.4-1.4c-0.1-0.6-0.5-0.8-1.3-0.8h-0.7V110.3z M586.1,107.2h0.7c0.8,0,1.4-0.2,1.4-0.9c0-0.5-0.3-0.9-1.3-0.9
				c-0.4,0-0.6,0-0.8,0.1L586.1,107.2L586.1,107.2z"/>
		</g>
	</g>
</g>
</svg>
