<svg id="e942ad62-d2ec-42aa-9887-855252f4368d" data-name="Layer 1" xmlns="http://www.w3.org/2000/svg" viewBox="0 0 157.07 61.67"><title>wuf</title><path d="M63.68,0V43.34q0,8.11-4.89,13.22a16.72,16.72,0,0,1-12.65,5.11q-9.35,0-14.28-8.5a19.77,19.77,0,0,1-6.52,6.54,17.24,17.24,0,0,1-8.59,2q-8.11,0-12.43-5.11T0,41.84V0H17.89V39.15A10.11,10.11,0,0,0,18.36,43a1.88,1.88,0,0,0,1.87.92q2.64,0,2.64-4.45V0h17.9V39.15a9.82,9.82,0,0,0,.48,3.79,1.91,1.91,0,0,0,1.9,1c1.76,0,2.64-1.58,2.64-4.76V0Z" style="fill:#fff"/><path d="M110.28,0V39q0,10.32-6.15,16.48c-4.1,4.12-8.56,6.17-15.37,6.17s-11-2-14.58-6-5.4-9.74-5.4-17.23V0H86.67V38.4c0,3.68.31,5.51,2.92,5.51s2.79-1.83,2.79-5.51V0Z" style="fill:#fff"/><path d="M157.07,17.74V0H115.3V39q0,10.32,6.15,16.49a19.2,19.2,0,0,0,11.75,5.92V38.9h17V22.77l-17,0v-5Z" style="fill:#fff"/></svg>