<svg id="77391e20-2a47-4597-956f-5fe1e3916d80" data-name="Layer 1" xmlns="http://www.w3.org/2000/svg" viewBox="0 0 162.61 40"><title>logo</title><path d="M27.42,38.63V17.23h8a21.11,21.11,0,0,1,4.14.31A8.18,8.18,0,0,1,43,19.07a8.74,8.74,0,0,1,2.75,3.66,13.33,13.33,0,0,1,.91,5.09A13.84,13.84,0,0,1,46,32.14a10.13,10.13,0,0,1-1.59,3.12,8.13,8.13,0,0,1-2.12,1.94,9,9,0,0,1-2.78,1.07,17.19,17.19,0,0,1-3.74.37Zm3.08-2.53h5a13.05,13.05,0,0,0,3.61-.39,5.29,5.29,0,0,0,2.09-1.11,6.67,6.67,0,0,0,1.71-2.71,12.26,12.26,0,0,0,.61-4.12,9.31,9.31,0,0,0-1.2-5.16,5.9,5.9,0,0,0-2.91-2.42,13,13,0,0,0-4-.44H30.5Z" style="fill:#fff"/><path d="M50.14,38.63V17.23H67v2.53H53.22v6.56H66.09v2.51H53.22v7.29H67.51v2.53Z" style="fill:#fff"/><path d="M70.85,38.63V17.23h4.63L81,32.39q.76,2.12,1.11,3.17.4-1.17,1.24-3.43l5.57-14.89h4.14v21.4h-3V20.72L83.33,38.63H80.55L73.82,20.41V38.63Z" style="fill:#fff"/><path d="M94.66,38.63l8.94-21.4h3.32l9.52,21.4h-3.51l-2.71-6.48h-9.73l-2.56,6.48Zm6.71-8.79h7.89l-2.43-5.93q-1.11-2.7-1.65-4.44a25.73,25.73,0,0,1-1.25,4.09Z" style="fill:#fff"/><path d="M121.59,38.63V19.76h-7.67V17.23h18.44v2.53h-7.7V38.63Z" style="fill:#fff"/><path d="M135.24,38.63V17.23h3.08v21.4Z" style="fill:#fff"/><path d="M159.53,31.13l3.08.72a9.44,9.44,0,0,1-3.48,5.32A10.16,10.16,0,0,1,153,39a11.81,11.81,0,0,1-6.12-1.41,9,9,0,0,1-3.59-4.08A13.56,13.56,0,0,1,142,27.77a11.78,11.78,0,0,1,1.39-5.83,9.13,9.13,0,0,1,4-3.78A12.35,12.35,0,0,1,153,16.87a10.13,10.13,0,0,1,5.87,1.64,8.49,8.49,0,0,1,3.32,4.6l-3,.66a6.59,6.59,0,0,0-2.35-3.4A6.64,6.64,0,0,0,153,19.29a8,8,0,0,0-4.48,1.18,6.31,6.31,0,0,0-2.53,3.18,11.85,11.85,0,0,0-.73,4.11,12.11,12.11,0,0,0,.87,4.77,6.06,6.06,0,0,0,2.69,3,8,8,0,0,0,4,1,7,7,0,0,0,4.38-1.37A6.9,6.9,0,0,0,159.53,31.13Z" style="fill:#fff"/><rect width="10.13" height="40" style="fill:#fca700"/></svg>